{"title":"Lucy (2014) 1080p Eng HC Subs fiveofseven zombiRG","uid":12019554,"size":2860951879,"categoryP":"video","categoryS":"hd___movies","magnet":"?xt=urn:btih:bbabcc605336b052869989f2c5c88e2ea91e0d75&amp;dn=Lucy+%282014%29+1080p+Eng+HC+Subs+fiveofseven+zombiRG&amp;tr=udp%3A%2F%2Ftracker.openbittorrent.com%3A80&amp;tr=udp%3A%2F%2Fopen.demonii.com%3A1337&amp;tr=udp%3A%2F%2Ftracker.coppersurfer.tk%3A6969&amp;tr=udp%3A%2F%2Fexodus.desync.com%3A6969","seeders":1,"leechers":0,"uploader":"fiveofseven","files":3,"time":1434395960,"description":"English Subs Hardcoded for Non-English Dialogue\nAAC 2.0 Track 1 &amp; AC3 5.1 Track 2\n\n\nSpecial thanks to &quot;monodioo&quot; for providing translations, where needed.\nStandard Blu-Ray subtitles did not translate all dialogue.\nThese were translated from a Vietnamese subtitle, \nwhich covered all dialogue in the movie.\n\n &lt;a href=&quot;\nhttps://yuq.me/users/25/564/9pqOy6b4BE.jpg&quot; rel=&quot;nofollow&quot; target=&quot;_NEW&quot;&gt;\nhttps://yuq.me/users/25/564/9pqOy6b4BE.jpg&lt;/a&gt;\n\n\nPLOT - A woman, accidentally caught in a dark deal\nturns the tables on her captors and transforms into\na merciless warrior evolved beyond human logic.\n\n\nGeneral\nComplete name : C:Lucy 1080p HC Extended Eng Subs fiveofseven zombiRG.mp4\nFormat : MPEG-4\nFormat profile : Base Media\nCodec ID : isom\nFile size : 2.65 GiB\nDuration : 1h 29mn\nOverall bit rate mode : Variable\nOverall bit rate : 4 247 Kbps\nEncoded date : UTC 2015-02-17 13:17:20\nTagged date : UTC 2015-02-17 15:31:14\nWriting application : My MP4Box GUI 0.6.0.6 \nComment : Encoded by fiveofseven\n\nVideo\nID : 1\nFormat : AVC\nFormat/Info : Advanced Video Codec\nFormat profile : &lt;a class=&quot;__cf_email__&quot; href=&quot;/cdn-cgi/l/email-protection&quot; data-cfemail=&quot;98d0f1fff0d8d4adb6a8&quot;&gt;[email&amp;#160;protected]&lt;/a&gt;&lt;script data-cfhash='f9e31' type=&quot;text/javascript&quot;&gt;\n/* &lt;![CDATA[ */!function(){try{var t=&quot;currentScript&quot;in document?document.currentScript:function(){for(var t=document.getElementsByTagName(&quot;script&quot;),e=t.length;e--;)if(t[e].getAttribute(&quot;data-cfhash&quot;))return t[e]}();if(t&amp;&amp;t.previousSibling){var e,r,n,i,c=t.previousSibling,a=c.getAttribute(&quot;data-cfemail&quot;);if(a){for(e=&quot;&quot;,r=parseInt(a.substr(0,2),16),n=2;a.length-n;n+=2)i=parseInt(a.substr(n,2),16)^r,e+=String.fromCharCode(i);e=document.createTextNode(e),c.parentNode.replaceChild(e,c)}t.parentNode.removeChild(t);}}catch(u){}}()/* ]]&gt; */&lt;/script&gt;\nFormat settings, CABAC : Yes\nFormat settings, ReFrames : 7 frames\nCodec ID : avc1\nCodec ID/Info : Advanced Video Coding\nDuration : 1h 29mn\nBit rate : 3 800 Kbps\nMaximum bit rate : 25.1 Mbps\nWidth : 1 904 pixels\nHeight : 800 pixels\nDisplay aspect ratio : 2.40:1\nFrame rate mode : Constant\nFrame rate : 23.976 fps\nColor space : YUV\nChroma subsampling : 4:2:0\nBit depth : 8 bits\nScan type : Progressive\nBits/(Pixel*Frame) : 0.104\nStream size : 2.37 GiB (89%)\nTitle : Lucy 1080p.mp4\nWriting library : x264 core 133 r2334 a3ac64b\nEncoding settings : [:Qno]\nLanguage : English\nEncoded date : UTC 2015-02-16 09:24:16\nTagged date : UTC 2015-02-17 13:24:49\n\nAudio #1\nID : 2\nFormat : AAC\nFormat/Info : Advanced Audio Codec\nFormat profile : LC\nCodec ID : 40\nDuration : 1h 29mn\nBit rate mode : Variable\nBit rate : 128 Kbps\nMaximum bit rate : 135 Kbps\nChannel count : 2 channels\nChannel positions : Front: L R\nSampling rate : 48.0 KHz\nCompression mode : Lossy\nDelay relative to video : 83ms\nStream size : 81.8 MiB (3%)\nTitle : aac 2.0.mp4\nLanguage : English\nEncoded date : UTC 2015-02-17 13:22:34\nTagged date : UTC 2015-02-17 13:24:49\n\nAudio #2\nID : 3\nFormat : AC-3\nFormat/Info : Audio Coding 3\nMode extension : CM (complete main)\nFormat settings, Endianness : Big\nCodec ID : ac-3\nDuration : 1h 29mn\nBit rate mode : Constant\nBit rate : 320 Kbps\nChannel count : 6 channels\nChannel positions : Front: L C R, Side: L R, LFE\nSampling rate : 48.0 KHz\nBit depth : 16 bits\nCompression mode : Lossy\nDelay relative to video : 83ms\nStream size : 204 MiB (8%)\nTitle : ac3 5.1.ac3\nLanguage : English\nEncoded date : UTC 2015-02-17 13:23:03\nTagged date : UTC 2015-02-17 13:24:49\n\n &lt;a href=&quot;\nhttps://yuq.me/users/25/564/qyNPZQFH0K.png&quot; rel=&quot;nofollow&quot; target=&quot;_NEW&quot;&gt;\nhttps://yuq.me/users/25/564/qyNPZQFH0K.png&lt;/a&gt; &lt;a href=&quot;\nhttps://yuq.me/users/25/564/skOF2MbCXg.png&quot; rel=&quot;nofollow&quot; target=&quot;_NEW&quot;&gt;\nhttps://yuq.me/users/25/564/skOF2MbCXg.png&lt;/a&gt; &lt;a href=&quot;\nhttps://yuq.me/users/25/564/QlnfuAmgVM.png&quot; rel=&quot;nofollow&quot; target=&quot;_NEW&quot;&gt;\nhttps://yuq.me/users/25/564/QlnfuAmgVM.png&lt;/a&gt; &lt;a href=&quot;\nhttps://yuq.me/users/25/564/dtj8nugzbs.png&quot; rel=&quot;nofollow&quot; target=&quot;_NEW&quot;&gt;\nhttps://yuq.me/users/25/564/dtj8nugzbs.png&lt;/a&gt;\n &lt;a href=&quot;\nhttps://yuq.me/users/25/564/aegRQCBILx.png&quot; rel=&quot;nofollow&quot; target=&quot;_NEW&quot;&gt;\nhttps://yuq.me/users/25/564/aegRQCBILx.png&lt;/a&gt;","torrent":{"xt":"urn:btih:bbabcc605336b052869989f2c5c88e2ea91e0d75","amp;dn":"Lucy+%282014%29+1080p+Eng+HC+Subs+fiveofseven+zombiRG","amp;tr":["udp%3A%2F%2Ftracker.openbittorrent.com%3A80","udp%3A%2F%2Fopen.demonii.com%3A1337","udp%3A%2F%2Ftracker.coppersurfer.tk%3A6969","udp%3A%2F%2Fexodus.desync.com%3A6969"],"infoHash":"bbabcc605336b052869989f2c5c88e2ea91e0d75","infoHashBuffer":{"type":"Buffer","data":[187,171,204,96,83,54,176,82,134,153,137,242,197,200,142,46,169,30,13,117]},"announce":[],"urlList":[]}}